<svg xmlns="http://www.w3.org/2000/svg" viewBox="0 0 50.681 36.447"><defs><style>.a,.d{fill:#fff;}.b,.d{font-size:8px;}.b{fill:#ee7636;font-family:Gotham-Black, Gotham Black;font-weight:800;}.c{letter-spacing:-0.005em;}.d{font-family:Gotham-Medium, Gotham;font-weight:500;letter-spacing:-0.02em;}.e{letter-spacing:-0.038em;}</style></defs><title>logo</title><path class="a" d="M50.225,39.96q0,4.674,0,9.348c0,.907,0,.908-.877.908H32.153A18.221,18.221,0,0,1,13.941,33.979,18.216,18.216,0,0,1,47.929,23.065a17.238,17.238,0,0,1,2.3,8.919C50.193,34.642,50.225,37.3,50.225,39.96Zm-15.655-1.8c0-.019,0,.02,0,0,1.046,0,2.092-.009,3.138.005.383.006.567-.132.56-.525-.037-2.111.059-4.232-.133-6.328a6.085,6.085,0,0,0-7.352-5.389,6.287,6.287,0,0,0-4.92,5.906A6.132,6.132,0,0,0,30.8,38.02,35.072,35.072,0,0,0,34.57,38.162Z" transform="translate(-13.824 -13.77)"/><text class="b" transform="translate(12.907 34.967)">T<tspan class="c" x="5.28" y="0">E</tspan><tspan x="10.576" y="0">CH</tspan></text><text class="d" transform="translate(36.815 34.967)">P<tspan class="e" x="5.184" y="0">r</tspan><tspan x="8.184" y="0">o</tspan></text></svg>